# xmcd
#
# Track frame offsets: 
#        150
#        16753
#        38390
#        58473
#        83045
#        101883
#        118353
#        134835
#        163690
#        189538
#        209905
#        228145
#
# Disc length: 3308 seconds
#
# Revision: 10
# Processed by: cddbd v1.5.2PL0 Copyright (c) Steve Scherf et al.
# Submitted via: ExactAudioCopy v1.1
#
DISCID=ad0cea0c
DTITLE=BONNIE RAITT - Longing In Their Hearts
DYEAR=1994
DGENRE=Country
TTITLE0=Love Sneakin' Up On You
TTITLE1=Longing In Their Hearts
TTITLE2=You
TTITLE3=Cool, Clear Water
TTITLE4=Circle Dance
TTITLE5=I Sho Do
TTITLE6=Dimming Of The Day
TTITLE7=Feeling Of Falling
TTITLE8=Steal Your Heart Away
TTITLE9=Storm Warning
TTITLE10=Hell To Pay
TTITLE11=Shadow Of Doubt
EXTD=YEAR: 1994 ID3G: 0
EXTT0=
EXTT1=
EXTT2=
EXTT3=
EXTT4=
EXTT5=
EXTT6=
EXTT7=
EXTT8=
EXTT9=
EXTT10=
EXTT11=
PLAYORDER=
